<svg width="625" height="1311" viewBox="0 0 625 1311" fill="none" xmlns="http://www.w3.org/2000/svg">
<path d="M624.529 543.728H607.348V378.631H0.176575V625.858L275.059 790.522V790.955L624.529 1000.3V543.728Z" fill="#7A04DD"/>
<path d="M624.529 0L275.06 209.344V209.358L0.177429 374.022V621.249H607.349V456.571H624.529V0Z" fill="url(#paint0_linear)"/>
<path fill-rule="evenodd" clip-rule="evenodd" d="M624.52 408.801L467.785 502.233L467.804 502.244L466.168 503.189L466.175 503.192L466.135 503.216L466.99 503.72H467.061L474.262 508.009L478.279 510.378L478.251 510.384L624.52 597.493V408.801Z" fill="#F2F1F0"/>
<path fill-rule="evenodd" clip-rule="evenodd" d="M0 1310.19H624.528V255.437L0 624.418V1310.19Z" fill="#D4A2FF" fill-opacity="0.18"/>
<defs>
<linearGradient id="paint0_linear" x1="611.121" y1="3.60127" x2="800.521" y2="310.749" gradientUnits="userSpaceOnUse">
<stop stop-color="#AB46FF"/>
<stop offset="1" stop-color="#7A04DD"/>
</linearGradient>
</defs>
</svg>
